# xmcd
#
# Track frame offsets:
#	150
#	16965
#	34109
#	48915
#	71674
#	94584
#	109265
#	127640
#	152526
#	184612
#
# Disc length: 3162 seconds
#
# Revision: 0
# Processed by: cddbd v1.5PL3 Copyright (c) Steve Scherf et al.
# Submitted via: dBpowerAMP V4.0
#
DISCID=710c580a
DTITLE=King Cotton Blues Band - 10' Tall
DYEAR=1997
DGENRE=Blues
TTITLE0=10' Tall
TTITLE1=The Blues Look Good On You
TTITLE2=If Your Baby Knew
TTITLE3=Coonhound Blues
TTITLE4=Black Cat Bone
TTITLE5=Spider To The Fly
TTITLE6=Workin' Man Blues
TTITLE7=Cheatin' Wine
TTITLE8=Goin Down
TTITLE9=Soul Patch
EXTD=
EXTT0=
EXTT1=
EXTT2=
EXTT3=
EXTT4=
EXTT5=
EXTT6=
EXTT7=
EXTT8=
EXTT9=
PLAYORDER=
